<svg width="189" height="48" xmlns="http://www.w3.org/2000/svg"><g fill="none" fill-rule="evenodd"><path fill="#221613" d="m166.962 2.452-4.445 8.731h5.718l1.848-3.631h9.702l-10.121 20.031h5.717l12.697-25.131zM106.405 7.563h5.101V2.45h-5.101zM98.953 7.563h5.102V2.45h-5.102zM149.914 18.471h4.782v-5.102h-4.782zM151.511 27.6h5.409l6.673-13.235h-5.409zM142.779 18.471h4.783v-5.102h-4.783zM115.395 7.551h24.243V2.45h-24.243zM115.395 16.686h9.302L119.21 27.58h5.713l5.488-10.894h9.227v-4.642h-24.243zM82.763 27.598h5.282L94.9 2.449h-5.284zM98.953 9.914l4.826 17.684h5.099l-4.824-17.684zM66.047 20.511V2.449H60.59V27.58h5.457v-.008l.009.008 16.157-15.535h-7.36z"/><path fill="#D3D3D4" d="M11.16 20.741 0 25.805l8.727 8.727 6.208-4.465L56.727 0z"/><path fill="#3C7DA2" d="m14.935 30.067-6.208 4.465L22.194 48 56.727 0z"/><path d="M14.935 30.066 11.16 20.74 0 25.804l8.727 8.728L22.194 48z" fill="#231815" fill-opacity=".5"/><path fill="#3C7DA2" d="m51.806 32.812-9.342 14.49h136.272l9.342-14.49z"/><g fill="#FFF"><path d="M87.125 35.134c.259 0 .648-.024.895-.086l1.284 1.01c-.169.21-.26.346-.402.679-1.258 2.982-1.518 3.549-2.504 4.794-1.517 1.935-3.477 2.995-4.956 3.735-.337-.445-.753-.827-1.362-1.283 3.373-1.454 5.293-2.982 6.863-7.296h-8.148v-1.553h8.33ZM100.142 34.605c.195.012.259.049.259.11 0 .16-.169.21-.259.247v3.993c0 4.117-2.53 5.607-5.033 6.606-.222-.518-.597-.974-1.142-1.343 4.241-1.319 4.333-3.895 4.333-5.25v-4.45l1.842.087Zm-6.02.222c.156.012.26.012.26.123 0 .122-.156.184-.26.234v5.965h-1.815v-6.397l1.815.075ZM103.472 40.877h11.196v-1.75h-11.196zM118.703 36.453h7.499v-1.504h-7.5v1.504Zm6.889 1.393c.583 0 .869-.05 1.103-.11l1.09.726c-.22.394-1.143 2.145-1.35 2.49-1.557 2.625-3.23 3.734-5.799 4.695-.337-.518-.765-.96-1.206-1.356 1.984-.603 4.488-1.639 5.812-4.917h-8.148v-1.528h8.498ZM129.642 43.454c3.113-.629 7.084-2.589 9.743-6.693.468.703.623.937 1.129 1.442-.844 1.233-3.283 4.721-9.406 6.816-.026.123-.04.271-.22.271-.09 0-.169-.099-.234-.21l-1.012-1.626Zm.92-8.665c1.908.912 2.79 1.603 3.4 2.12-.272.296-.467.543-1.077 1.43-1.53-1.27-2.789-1.836-3.41-2.096l1.088-1.454ZM142.568 36.823v-1.565h6.59c.208 0 .688-.025.896-.1l.881.9c-.26.321-.401.605-.493.79-.544 1.207-.843 1.86-1.673 3.143.986.701 3.023 2.378 4.048 3.561a96.386 96.386 0 0 0-1.336 1.405c-.701-.924-1.778-2.267-3.685-3.673-.895 1.073-2.997 2.958-5.19 3.845-.402-.665-.622-.948-1.232-1.441.779-.259 2.673-.925 4.593-2.885 1.401-1.416 1.895-2.575 2.452-3.98h-5.851Z"/></g></g></svg>