<svg width="213" height="91" viewBox="0 0 213 91" fill="none" xmlns="http://www.w3.org/2000/svg">
<g clip-path="url(#clip0_12102_975)">
<circle cx="2.29032" cy="2.29032" r="2.29032" fill="white"/>
<circle cx="13.742" cy="2.29032" r="2.29032" fill="white"/>
<circle cx="25.1936" cy="2.29032" r="2.29032" fill="white"/>
<circle cx="36.6451" cy="2.29032" r="2.29032" fill="white"/>
<circle cx="48.0967" cy="2.29032" r="2.29032" fill="white"/>
<circle cx="59.5484" cy="2.29032" r="2.29032" fill="white"/>
<circle cx="71" cy="2.29032" r="2.29032" fill="white"/>
<circle cx="82.4517" cy="2.29032" r="2.29032" fill="white"/>
<circle cx="93.9031" cy="2.29032" r="2.29032" fill="white"/>
<circle cx="105.355" cy="2.29032" r="2.29032" fill="white"/>
<circle cx="116.806" cy="2.29032" r="2.29032" fill="white"/>
<circle cx="128.258" cy="2.29032" r="2.29032" fill="white"/>
<circle cx="139.71" cy="2.29032" r="2.29032" fill="white"/>
<circle cx="151.161" cy="2.29032" r="2.29032" fill="white"/>
<circle cx="162.613" cy="2.29032" r="2.29032" fill="white"/>
<circle cx="174.064" cy="2.29032" r="2.29032" fill="white"/>
<circle cx="185.516" cy="2.29032" r="2.29032" fill="white"/>
<circle cx="196.968" cy="2.29032" r="2.29032" fill="white"/>
<circle cx="208.419" cy="2.29032" r="2.29032" fill="white"/>
<circle cx="2.29032" cy="13.742" r="2.29032" fill="white"/>
<circle cx="13.742" cy="13.742" r="2.29032" fill="white"/>
<circle cx="25.1936" cy="13.742" r="2.29032" fill="white"/>
<circle cx="36.6451" cy="13.742" r="2.29032" fill="white"/>
<circle cx="48.0967" cy="13.742" r="2.29032" fill="white"/>
<circle cx="59.5484" cy="13.742" r="2.29032" fill="white"/>
<circle cx="71" cy="13.742" r="2.29032" fill="white"/>
<circle cx="82.4517" cy="13.742" r="2.29032" fill="white"/>
<circle cx="93.9031" cy="13.742" r="2.29032" fill="white"/>
<circle cx="105.355" cy="13.742" r="2.29032" fill="white"/>
<circle cx="116.806" cy="13.742" r="2.29032" fill="white"/>
<circle cx="128.258" cy="13.742" r="2.29032" fill="white"/>
<circle cx="139.71" cy="13.742" r="2.29032" fill="white"/>
<circle cx="151.161" cy="13.742" r="2.29032" fill="white"/>
<circle cx="162.613" cy="13.742" r="2.29032" fill="white"/>
<circle cx="174.064" cy="13.742" r="2.29032" fill="white"/>
<circle cx="185.516" cy="13.742" r="2.29032" fill="white"/>
<circle cx="196.968" cy="13.742" r="2.29032" fill="white"/>
<circle cx="208.419" cy="13.742" r="2.29032" fill="white"/>
<circle cx="2.29032" cy="25.1935" r="2.29032" fill="white"/>
<circle cx="13.742" cy="25.1935" r="2.29032" fill="white"/>
<circle cx="25.1936" cy="25.1935" r="2.29032" fill="white"/>
<circle cx="36.6451" cy="25.1935" r="2.29032" fill="white"/>
<circle cx="48.0967" cy="25.1935" r="2.29032" fill="white"/>
<circle cx="59.5484" cy="25.1935" r="2.29032" fill="white"/>
<circle cx="71" cy="25.1935" r="2.29032" fill="white"/>
<circle cx="82.4517" cy="25.1935" r="2.29032" fill="white"/>
<circle cx="93.9031" cy="25.1935" r="2.29032" fill="white"/>
<circle cx="105.355" cy="25.1935" r="2.29032" fill="white"/>
<circle cx="116.806" cy="25.1935" r="2.29032" fill="white"/>
<circle cx="128.258" cy="25.1935" r="2.29032" fill="white"/>
<circle cx="139.71" cy="25.1935" r="2.29032" fill="white"/>
<circle cx="151.161" cy="25.1935" r="2.29032" fill="white"/>
<circle cx="162.613" cy="25.1935" r="2.29032" fill="white"/>
<circle cx="174.064" cy="25.1935" r="2.29032" fill="white"/>
<circle cx="185.516" cy="25.1935" r="2.29032" fill="white"/>
<circle cx="196.968" cy="25.1935" r="2.29032" fill="white"/>
<circle cx="208.419" cy="25.1935" r="2.29032" fill="white"/>
<circle cx="2.29032" cy="36.6452" r="2.29032" fill="white"/>
<circle cx="13.742" cy="36.6452" r="2.29032" fill="white"/>
<circle cx="25.1936" cy="36.6452" r="2.29032" fill="white"/>
<circle cx="36.6451" cy="36.6452" r="2.29032" fill="white"/>
<circle cx="48.0967" cy="36.6452" r="2.29032" fill="white"/>
<circle cx="59.5484" cy="36.6452" r="2.29032" fill="white"/>
<circle cx="71" cy="36.6452" r="2.29032" fill="white"/>
<circle cx="82.4517" cy="36.6452" r="2.29032" fill="white"/>
<circle cx="93.9031" cy="36.6452" r="2.29032" fill="white"/>
<circle cx="105.355" cy="36.6452" r="2.29032" fill="white"/>
<circle cx="116.806" cy="36.6452" r="2.29032" fill="white"/>
<circle cx="128.258" cy="36.6452" r="2.29032" fill="white"/>
<circle cx="139.71" cy="36.6452" r="2.29032" fill="white"/>
<circle cx="151.161" cy="36.6452" r="2.29032" fill="white"/>
<circle cx="162.613" cy="36.6452" r="2.29032" fill="white"/>
<circle cx="174.064" cy="36.6452" r="2.29032" fill="white"/>
<circle cx="185.516" cy="36.6452" r="2.29032" fill="white"/>
<circle cx="196.968" cy="36.6452" r="2.29032" fill="white"/>
<circle cx="208.419" cy="36.6452" r="2.29032" fill="white"/>
<circle cx="2.29032" cy="48.0967" r="2.29032" fill="white"/>
<circle cx="13.742" cy="48.0967" r="2.29032" fill="white"/>
<circle cx="25.1936" cy="48.0967" r="2.29032" fill="white"/>
<circle cx="36.6451" cy="48.0967" r="2.29032" fill="white"/>
<circle cx="48.0967" cy="48.0967" r="2.29032" fill="white"/>
<circle cx="59.5484" cy="48.0967" r="2.29032" fill="white"/>
<circle cx="71" cy="48.0967" r="2.29032" fill="white"/>
<circle cx="82.4517" cy="48.0967" r="2.29032" fill="white"/>
<circle cx="93.9031" cy="48.0967" r="2.29032" fill="white"/>
<circle cx="105.355" cy="48.0967" r="2.29032" fill="white"/>
<circle cx="116.806" cy="48.0967" r="2.29032" fill="white"/>
<circle cx="128.258" cy="48.0967" r="2.29032" fill="white"/>
<circle cx="139.71" cy="48.0967" r="2.29032" fill="white"/>
<circle cx="151.161" cy="48.0967" r="2.29032" fill="white"/>
<circle cx="162.613" cy="48.0967" r="2.29032" fill="white"/>
<circle cx="174.064" cy="48.0967" r="2.29032" fill="white"/>
<circle cx="185.516" cy="48.0967" r="2.29032" fill="white"/>
<circle cx="196.968" cy="48.0967" r="2.29032" fill="white"/>
<circle cx="208.419" cy="48.0967" r="2.29032" fill="white"/>
<circle cx="2.29032" cy="59.5484" r="2.29032" fill="white"/>
<circle cx="13.742" cy="59.5484" r="2.29032" fill="white"/>
<circle cx="25.1936" cy="59.5484" r="2.29032" fill="white"/>
<circle cx="36.6451" cy="59.5484" r="2.29032" fill="white"/>
<circle cx="48.0967" cy="59.5484" r="2.29032" fill="white"/>
<circle cx="59.5484" cy="59.5484" r="2.29032" fill="white"/>
<circle cx="71" cy="59.5484" r="2.29032" fill="white"/>
<circle cx="82.4517" cy="59.5484" r="2.29032" fill="white"/>
<circle cx="93.9031" cy="59.5484" r="2.29032" fill="white"/>
<circle cx="105.355" cy="59.5484" r="2.29032" fill="white"/>
<circle cx="116.806" cy="59.5484" r="2.29032" fill="white"/>
<circle cx="128.258" cy="59.5484" r="2.29032" fill="white"/>
<circle cx="139.71" cy="59.5484" r="2.29032" fill="white"/>
<circle cx="151.161" cy="59.5484" r="2.29032" fill="white"/>
<circle cx="162.613" cy="59.5484" r="2.29032" fill="white"/>
<circle cx="174.064" cy="59.5484" r="2.29032" fill="white"/>
<circle cx="185.516" cy="59.5484" r="2.29032" fill="white"/>
<circle cx="196.968" cy="59.5484" r="2.29032" fill="white"/>
<circle cx="208.419" cy="59.5484" r="2.29032" fill="white"/>
<circle cx="2.29032" cy="71" r="2.29032" fill="white"/>
<circle cx="13.742" cy="71" r="2.29032" fill="white"/>
<circle cx="25.1936" cy="71" r="2.29032" fill="white"/>
<circle cx="36.6451" cy="71" r="2.29032" fill="white"/>
<circle cx="48.0967" cy="71" r="2.29032" fill="white"/>
<circle cx="59.5484" cy="71" r="2.29032" fill="white"/>
<circle cx="71" cy="71" r="2.29032" fill="white"/>
<circle cx="82.4517" cy="71" r="2.29032" fill="white"/>
<circle cx="93.9031" cy="71" r="2.29032" fill="white"/>
<circle cx="105.355" cy="71" r="2.29032" fill="white"/>
<circle cx="116.806" cy="71" r="2.29032" fill="white"/>
<circle cx="128.258" cy="71" r="2.29032" fill="white"/>
<circle cx="139.71" cy="71" r="2.29032" fill="white"/>
<circle cx="151.161" cy="71" r="2.29032" fill="white"/>
<circle cx="162.613" cy="71" r="2.29032" fill="white"/>
<circle cx="174.064" cy="71" r="2.29032" fill="white"/>
<circle cx="185.516" cy="71" r="2.29032" fill="white"/>
<circle cx="196.968" cy="71" r="2.29032" fill="white"/>
<circle cx="208.419" cy="71" r="2.29032" fill="white"/>
<circle cx="2.29032" cy="82.4516" r="2.29032" fill="white"/>
<circle cx="13.742" cy="82.4516" r="2.29032" fill="white"/>
<circle cx="25.1936" cy="82.4516" r="2.29032" fill="white"/>
<circle cx="36.6451" cy="82.4516" r="2.29032" fill="white"/>
<circle cx="48.0967" cy="82.4516" r="2.29032" fill="white"/>
<circle cx="59.5484" cy="82.4516" r="2.29032" fill="white"/>
<circle cx="71" cy="82.4516" r="2.29032" fill="white"/>
<circle cx="82.4517" cy="82.4516" r="2.29032" fill="white"/>
<circle cx="93.9031" cy="82.4516" r="2.29032" fill="white"/>
<circle cx="105.355" cy="82.4516" r="2.29032" fill="white"/>
<circle cx="116.806" cy="82.4516" r="2.29032" fill="white"/>
<circle cx="128.258" cy="82.4516" r="2.29032" fill="white"/>
<circle cx="139.71" cy="82.4516" r="2.29032" fill="white"/>
<circle cx="151.161" cy="82.4516" r="2.29032" fill="white"/>
<circle cx="162.613" cy="82.4516" r="2.29032" fill="white"/>
<circle cx="174.064" cy="82.4516" r="2.29032" fill="white"/>
<circle cx="185.516" cy="82.4516" r="2.29032" fill="white"/>
<circle cx="196.968" cy="82.4516" r="2.29032" fill="white"/>
<circle cx="208.419" cy="82.4516" r="2.29032" fill="white"/>
</g>
<defs>
<clipPath id="clip0_12102_975">
<rect width="213" height="90.4677" fill="white"/>
</clipPath>
</defs>
</svg>
